<?xml version="1.0" standalone="no"?>
<!DOCTYPE svg PUBLIC "-//W3C//DTD SVG 20010904//EN"
 "http://www.w3.org/TR/2001/REC-SVG-20010904/DTD/svg10.dtd">
<svg version="1.0" xmlns="http://www.w3.org/2000/svg"
 width="300.000000pt" height="300.000000pt" viewBox="0 0 300.000000 300.000000"
 preserveAspectRatio="xMidYMid meet">
<metadata>
Created by potrace 1.10, written by Peter Selinger 2001-2011
</metadata>
<g transform="translate(0.000000,300.000000) scale(0.100000,-0.100000)"
fill="#e00000" stroke="none">
<path d="M0 1500 l0 -1500 1500 0 1500 0 0 1500 0 1500 -1500 0 -1500 0 0
-1500z m1740 1455 c41 -8 90 -19 108 -24 18 -5 35 -10 37 -10 14 0 122 -33
137 -41 10 -6 22 -10 28 -10 19 0 195 -87 209 -104 7 -9 19 -16 25 -16 36 -1
272 -203 350 -300 174 -218 266 -412 321 -678 24 -113 25 -137 21 -320 -5
-211 -20 -297 -83 -467 -87 -234 -248 -462 -438 -619 -27 -22 -55 -45 -61 -51
-31 -27 -53 -43 -104 -74 -86 -53 -120 -71 -120 -64 0 3 -8 0 -17 -8 -10 -8
-29 -20 -43 -26 -85 -38 -137 -56 -155 -55 -11 1 -22 -4 -26 -10 -4 -6 -21
-11 -38 -10 -17 0 -31 -3 -31 -7 0 -4 -6 -8 -12 -8 -7 0 -31 -4 -53 -8 -53 -9
-104 -15 -137 -16 -16 0 -28 -4 -28 -9 0 -4 -60 -6 -132 -4 -73 2 -133 4 -133
5 0 1 -16 3 -35 5 -19 2 -51 5 -70 8 -19 3 -55 8 -80 11 -25 4 -49 10 -55 15
-5 4 -41 15 -80 25 -38 9 -86 25 -105 35 -19 9 -58 29 -86 44 -29 14 -58 26
-65 27 -8 0 -34 16 -59 34 -25 19 -58 42 -75 51 -16 9 -35 23 -43 30 -7 8 -30
27 -50 42 -82 62 -228 219 -276 297 -10 16 -22 32 -26 35 -25 18 -161 300
-174 363 -2 6 -6 19 -9 27 -13 32 -36 138 -47 217 -14 97 -8 424 8 465 6 14
13 46 16 71 3 24 10 55 15 68 8 20 16 46 26 89 0 3 7 16 15 30 7 14 13 27 13
30 -3 27 98 213 175 323 77 111 250 281 354 348 117 75 119 76 158 96 19 9 37
20 40 24 3 4 23 14 45 22 22 8 49 18 60 23 11 4 25 8 30 9 6 2 38 12 72 23 70
23 255 60 323 65 89 6 287 -4 360 -18z"/>
<path d="M1470 2956 c-3 -2 -43 -7 -90 -10 -152 -9 -321 -49 -447 -107 -24
-10 -45 -19 -48 -19 -11 0 -191 -105 -209 -122 -11 -10 -23 -18 -27 -18 -4 0
-14 -6 -21 -12 -7 -7 -40 -35 -73 -63 -110 -92 -217 -213 -274 -309 -14 -23
-27 -43 -31 -46 -3 -3 -20 -32 -37 -65 -27 -52 -46 -95 -96 -215 -6 -14 -9
-31 -8 -37 1 -7 -3 -13 -8 -13 -6 0 -8 -6 -5 -14 3 -8 1 -17 -5 -20 -6 -4 -8
-13 -5 -20 3 -8 1 -17 -4 -20 -6 -3 -8 -15 -5 -26 3 -11 0 -20 -6 -20 -7 0 -9
-9 -5 -24 3 -13 1 -27 -5 -31 -6 -3 -8 -17 -5 -30 3 -13 3 -29 0 -34 -10 -16
-12 -361 -2 -361 4 0 5 -15 2 -34 -4 -21 -2 -37 5 -41 6 -4 8 -18 5 -31 -4
-15 -2 -24 5 -24 6 0 9 -9 6 -20 -3 -11 -1 -20 5 -20 5 0 6 -9 3 -20 -4 -12
-2 -20 5 -20 7 0 9 -8 5 -20 -4 -12 -2 -20 5 -20 7 0 10 -7 6 -15 -3 -8 -1
-15 5 -15 6 0 9 -7 5 -15 -3 -8 -1 -15 5 -15 6 0 9 -7 5 -15 -3 -8 -1 -15 5
-15 6 0 9 -6 7 -12 -3 -7 -1 -17 3 -23 5 -5 34 -59 64 -120 31 -60 66 -120 77
-133 12 -12 18 -22 13 -22 -5 0 -2 -6 6 -13 22 -18 89 -104 89 -114 0 -17 249
-233 282 -246 10 -3 18 -11 18 -16 0 -5 11 -12 25 -15 14 -4 25 -11 25 -16 0
-8 180 -100 196 -100 3 0 20 -6 37 -14 40 -17 177 -57 247 -72 108 -23 347
-30 465 -14 163 22 334 72 449 131 22 12 55 28 71 37 131 65 351 255 457 394
161 212 279 505 282 705 0 40 4 73 9 73 4 0 7 47 7 105 0 58 -3 105 -7 105 -5
0 -8 30 -8 68 -1 37 -4 76 -9 87 -4 11 -10 38 -11 60 -2 22 -8 41 -13 43 -6 2
-8 12 -5 22 3 12 0 20 -6 20 -7 0 -10 4 -7 8 7 12 -13 82 -24 82 -5 0 -7 7 -4
15 4 8 1 15 -5 15 -6 0 -10 3 -10 8 1 4 0 9 -1 12 -1 3 -3 13 -5 24 -7 34 -27
76 -38 76 -6 0 -7 3 -4 7 4 3 1 13 -7 22 -8 9 -14 20 -14 24 0 14 -102 169
-150 227 -25 30 -68 77 -96 103 -28 26 -67 63 -87 82 -21 19 -42 35 -48 35 -6
0 -11 4 -11 8 0 4 -18 19 -40 32 -22 14 -40 28 -40 31 0 4 -10 9 -23 13 -13 3
-36 17 -51 31 -15 14 -35 25 -44 25 -9 0 -28 9 -42 20 -14 11 -33 20 -42 20
-9 0 -19 4 -22 9 -17 27 -307 106 -426 116 -19 2 -69 6 -110 10 -42 3 -78 4
-80 1z m36 -181 c11 -18 15 -37 11 -62 -4 -20 -2 -44 4 -55 17 -31 -4 -46 -64
-45 -28 0 -58 4 -64 10 -17 13 -17 149 -1 165 7 7 31 12 55 12 34 0 46 -5 59
-25z m114 10 c9 -11 16 -12 31 -2 14 9 23 9 37 1 14 -9 16 -23 14 -70 -5 -99
-36 -142 -72 -99 -11 14 -15 14 -29 0 -15 -13 -20 -13 -40 1 -21 15 -22 21
-15 87 4 40 11 78 17 85 13 16 42 15 57 -3z m-280 -9 c6 -8 9 -24 5 -35 -3
-10 -1 -22 5 -26 6 -4 8 -15 5 -25 -3 -10 0 -28 6 -39 18 -27 -1 -48 -53 -56
-51 -9 -68 6 -75 71 -11 86 -9 97 13 109 33 16 80 17 94 1z m512 -102 c10
-103 -5 -130 -53 -96 -13 9 -38 15 -56 13 -24 -2 -35 2 -40 14 -8 22 43 120
76 146 21 17 27 18 45 6 17 -11 22 -29 28 -83z m-661 70 c10 -13 10 -19 0 -36
-10 -16 -10 -30 0 -68 10 -40 10 -52 0 -64 -26 -31 -62 -8 -75 48 -4 17 -18
40 -32 52 -30 29 -23 48 24 68 48 19 67 20 83 0z m764 -24 c3 -5 14 -10 24
-10 25 0 55 -36 47 -56 -3 -9 -15 -18 -25 -21 -11 -3 -22 -16 -26 -30 -9 -39
-35 -73 -56 -73 -30 0 -39 29 -23 74 8 22 12 53 8 69 -9 41 32 79 51 47z
m-915 -42 c57 -94 61 -153 9 -153 -13 0 -32 -9 -41 -20 -23 -27 -46 -12 -76
50 -36 75 -39 101 -11 111 13 4 27 7 32 6 4 -1 16 7 27 18 27 27 37 25 60 -12z
m1076 -43 c6 -15 -47 -125 -69 -143 -17 -15 -43 -7 -51 15 -6 14 40 118 66
150 12 14 46 1 54 -22z m-1202 -99 c25 -46 27 -57 17 -70 -25 -30 -48 -18 -90
50 -22 36 -41 69 -41 74 0 5 10 16 22 24 20 14 24 14 43 -4 11 -10 33 -44 49
-74z m1306 49 c36 -19 57 -74 39 -107 -18 -35 -41 -59 -66 -69 -28 -10 -80 7
-93 31 -24 46 2 119 52 146 30 17 33 17 68 -1z m-1511 -94 c6 -10 8 -21 5 -24
-3 -2 8 -9 24 -15 17 -6 34 -22 41 -40 12 -28 11 -34 -9 -62 -35 -49 -100 -50
-100 -1 0 9 -14 24 -30 33 -48 27 -40 90 14 114 41 17 44 17 55 -5z m1639 -7
c12 -8 22 -22 22 -31 0 -9 3 -13 6 -10 4 3 15 2 25 -4 34 -17 22 -52 -36 -109
-46 -45 -58 -53 -73 -44 -9 6 -18 20 -20 32 -2 12 -9 19 -16 16 -18 -7 -50 31
-39 49 11 20 97 117 103 117 3 0 16 -7 28 -16z m-619 -63 c35 -11 67 -19 70
-19 3 1 24 -6 46 -16 22 -10 51 -22 65 -28 46 -18 194 -123 251 -178 144 -140
242 -329 274 -526 21 -134 19 -232 -9 -369 -30 -149 -159 -378 -265 -470 -19
-16 -47 -41 -62 -55 -66 -61 -283 -175 -354 -186 -5 -1 -36 -7 -69 -14 -56
-11 -318 -16 -335 -6 -7 5 -58 16 -91 20 -30 4 -92 28 -168 66 -264 129 -444
351 -518 640 -23 91 -26 324 -6 410 18 74 68 214 89 248 52 86 112 170 152
214 49 55 156 137 241 185 49 28 178 77 235 89 11 3 38 9 60 14 71 16 321 4
394 -19z m-1121 -51 c12 -12 22 -25 22 -31 0 -5 11 -14 24 -21 40 -17 38 -34
-8 -83 l-43 -47 -49 42 c-85 73 -88 80 -45 128 35 37 67 41 99 12z m1894 -37
c10 -9 18 -26 18 -37 -1 -27 -82 -141 -100 -141 -8 0 -22 14 -30 31 -8 17 -24
35 -35 40 -11 5 -21 19 -23 31 -3 19 8 28 65 56 82 41 82 41 105 20z m-1972
-111 c35 -27 48 -83 26 -116 -31 -48 -92 -47 -145 3 -39 37 -41 77 -5 116 22
23 31 27 62 21 20 -3 48 -14 62 -24z m2063 -13 c15 -24 2 -47 -39 -71 -27 -16
-34 -26 -30 -41 6 -25 -10 -47 -34 -47 -26 0 -66 68 -53 89 14 23 115 91 132
88 8 -1 18 -9 24 -18z m-2208 -126 c5 -12 22 -27 36 -34 15 -6 37 -21 49 -34
l22 -23 -21 -21 -21 -21 -41 20 c-27 14 -50 19 -68 15 -55 -12 -65 41 -20 99
24 31 50 31 64 -1z m2318 -87 c42 -32 35 -113 -10 -104 -10 2 -26 -6 -36 -19
-41 -51 -122 -9 -115 58 3 30 7 34 34 37 18 2 40 12 50 23 20 22 51 24 77 5z
m-2279 -72 c22 -8 20 -41 -3 -61 -14 -12 -18 -24 -14 -44 4 -20 0 -30 -15 -38
-16 -9 -30 -3 -86 37 -66 47 -80 74 -54 100 12 12 143 17 172 6z m2333 -96
c30 -28 31 -78 2 -104 -21 -19 -21 -18 -40 5 -11 13 -18 30 -15 38 3 8 -2 13
-14 13 -22 0 -25 -12 -10 -39 7 -14 4 -23 -11 -37 -19 -17 -20 -17 -47 3 -41
31 -42 82 -2 117 41 34 103 36 137 4z m-2454 -54 c86 -44 100 -62 73 -99 -16
-22 -139 -39 -168 -24 -22 12 -23 37 -2 61 13 14 14 21 5 32 -9 11 -10 20 -1
35 14 27 30 26 93 -5z m2491 -100 c20 -19 20 -23 0 -46 -16 -16 -16 -18 0 -24
9 -3 16 -17 16 -30 0 -29 -20 -38 -101 -47 -47 -6 -59 -4 -73 12 -17 19 -13
51 7 51 6 0 1 11 -12 23 -42 46 -14 63 131 76 9 0 24 -6 32 -15z m-2450 -80
c31 -32 33 -53 6 -87 -51 -65 -180 -27 -180 52 0 5 9 20 21 35 17 22 28 26 73
26 44 0 58 -5 80 -26z m2446 -109 c28 -25 35 -71 15 -101 -33 -51 -109 -55
-159 -9 -35 32 -34 69 4 107 28 27 36 30 76 25 25 -2 53 -12 64 -22z m-2435
-39 c17 -12 18 -17 7 -41 -9 -20 -10 -31 -1 -41 6 -7 8 -22 5 -32 -7 -22 -44
-32 -116 -32 -58 0 -79 18 -62 55 8 18 8 26 -4 35 -29 25 -8 51 48 60 71 12
103 11 123 -4z m2395 -131 c59 -30 53 -123 -8 -146 -61 -23 -142 23 -142 81 0
67 80 101 150 65z m-2370 -40 c6 -8 9 -23 5 -34 -3 -12 1 -30 10 -44 14 -22
14 -26 0 -40 -8 -9 -23 -18 -33 -20 -110 -29 -112 -30 -128 -17 -8 8 -14 25
-12 40 1 15 -3 35 -11 43 -25 31 -9 51 54 69 76 21 100 22 115 3z m2308 -135
c50 -13 72 -33 65 -59 -7 -29 -26 -32 -79 -14 -43 15 -47 14 -56 -1 -11 -19
-41 -21 -57 -2 -8 10 -8 22 0 47 15 45 35 60 64 49 12 -5 41 -14 63 -20z
m-2258 -49 c0 -25 -14 -35 -87 -61 -67 -24 -93 -18 -93 21 0 22 10 29 85 55
65 23 95 18 95 -15z m162 -265 c12 -17 -11 -43 -74 -86 l-63 -42 -17 22 c-21
25 -11 52 25 71 12 7 37 25 56 40 35 28 49 27 73 -5z m1875 9 c45 -40 52 -45
59 -45 13 0 44 -33 44 -46 0 -7 -14 -29 -31 -48 l-30 -35 -32 17 c-58 31 -107
74 -107 94 0 20 47 88 61 88 4 0 21 -11 36 -25z m-1806 -94 c16 -16 29 -38 29
-49 0 -22 -77 -110 -100 -113 -29 -5 -57 12 -76 46 -18 34 -18 36 -1 68 19 35
72 75 100 76 10 1 32 -12 48 -28z m1729 -42 c0 -10 -10 -23 -21 -30 -19 -10
-20 -12 -6 -27 15 -14 18 -13 36 9 16 20 23 22 38 13 39 -24 23 -83 -28 -105
-79 -32 -164 77 -114 148 27 39 95 33 95 -8z m-1625 -66 c5 -13 17 -23 26 -23
9 0 22 -6 28 -14 16 -19 0 -49 -57 -110 -45 -48 -61 -50 -82 -10 -7 13 -21 24
-31 24 -33 0 -41 34 -17 66 70 94 112 114 133 67z m1553 -88 c12 -16 22 -34
22 -41 0 -16 -37 -47 -48 -40 -5 3 -14 -6 -20 -19 -19 -41 -46 -31 -96 34 -25
33 -46 67 -46 75 0 9 12 22 28 28 15 7 38 24 51 37 l24 25 31 -35 c17 -19 41
-48 54 -64z m-1430 3 c19 -19 15 -35 -28 -98 -49 -73 -57 -77 -82 -53 -20 20
-20 20 1 60 25 50 69 103 85 103 7 0 17 -5 24 -12z m1250 -77 c34 -32 62 -63
62 -68 0 -16 -24 -33 -47 -33 -13 0 -26 -7 -29 -15 -4 -9 -15 -20 -26 -26 -30
-16 -45 4 -64 88 l-17 76 24 18 c13 10 26 19 29 19 3 0 33 -27 68 -59z m-1144
18 c44 -26 46 -53 7 -73 -15 -8 -34 -29 -41 -46 -14 -34 -41 -53 -64 -44 -25
10 -27 33 -5 76 11 22 18 49 16 60 -14 51 27 63 87 27z m974 -27 c7 -5 26 -40
42 -78 28 -67 29 -69 10 -88 -26 -26 -42 -16 -72 45 -38 80 -40 90 -22 110 19
21 23 22 42 11z m-821 -44 c14 -16 15 -23 5 -38 -7 -11 -12 -26 -12 -34 0 -7
-7 -19 -15 -26 -9 -7 -13 -21 -10 -30 14 -44 -73 -51 -110 -10 -17 19 -17 22
4 77 36 95 44 103 86 90 19 -5 43 -19 52 -29z m700 -10 c6 -7 16 -30 22 -50 8
-25 19 -38 30 -38 22 0 55 -35 46 -50 -10 -16 -76 -41 -95 -35 -20 6 -32 31
-50 102 -11 42 -11 55 -1 67 16 19 35 20 48 4z m-475 -45 c16 -16 18 -28 12
-78 -9 -77 -31 -100 -88 -91 -64 11 -70 22 -56 102 6 38 17 75 23 82 15 19 84
9 109 -15z m346 15 c6 -7 13 -30 17 -51 5 -28 14 -41 32 -48 55 -21 33 -71
-33 -73 -32 -1 -40 3 -52 26 -7 15 -16 51 -19 79 -5 43 -3 54 12 65 23 17 30
17 43 2z m-88 -18 c6 -11 13 -48 16 -84 4 -50 1 -67 -11 -80 -9 -9 -21 -16
-25 -16 -19 0 -38 47 -43 108 -4 55 -2 64 16 77 28 20 34 19 47 -5z m-100 -10
c21 -21 27 -69 10 -86 -7 -7 -8 -19 -1 -36 7 -18 6 -29 -2 -37 -14 -14 -44
-14 -52 -1 -5 8 -11 7 -20 0 -16 -14 -55 -4 -56 13 -2 36 3 152 7 159 3 4 25
8 50 8 31 0 50 -6 64 -20z"/>
<path d="M1400 2705 c0 -68 2 -75 20 -75 16 0 19 5 14 30 -4 17 -2 30 4 30 5
0 15 -13 22 -30 8 -18 20 -30 31 -30 19 0 19 1 3 32 -11 22 -13 33 -5 36 15 5
14 55 -1 70 -7 7 -29 12 -50 12 l-38 0 0 -75z m68 28 c-5 -26 -38 -29 -38 -4
0 15 6 21 21 21 14 0 19 -5 17 -17z"/>
<path d="M1570 2736 c0 -24 -3 -58 -6 -75 -5 -24 -3 -31 9 -31 11 0 18 14 23
47 l7 46 19 -51 c20 -54 47 -70 49 -29 0 12 4 46 8 75 7 46 5 52 -10 52 -14 0
-19 -10 -21 -47 l-3 -48 -19 53 c-14 36 -25 52 -38 52 -15 0 -18 -8 -18 -44z"/>
<path d="M1267 2763 c-24 -4 -28 -8 -23 -26 3 -12 9 -46 12 -75 7 -53 7 -54
37 -48 16 3 36 6 43 6 8 0 14 7 14 16 0 12 -7 14 -30 9 -26 -6 -30 -4 -30 14
0 16 6 21 25 21 16 0 25 6 25 16 0 13 -7 15 -30 11 -25 -6 -30 -3 -30 13 0 15
7 20 25 20 16 0 25 6 25 15 0 15 -9 16 -63 8z"/>
<path d="M1752 2679 c-36 -60 -39 -69 -22 -69 10 0 20 4 22 9 2 5 15 7 30 4
16 -3 25 -10 22 -18 -4 -10 26 -33 30 -23 1 2 0 37 -2 80 -3 62 -7 77 -21 81
-13 3 -28 -13 -59 -64z m56 -3 c0 -28 -3 -33 -19 -29 -17 5 -17 7 -3 34 19 37
22 36 22 -5z"/>
<path d="M1118 2727 c-22 -6 -38 -17 -38 -25 0 -9 7 -13 20 -9 18 5 23 -3 37
-54 9 -32 20 -59 25 -59 17 0 18 27 3 69 -19 54 -19 61 0 61 8 0 15 7 15 15 0
17 -9 17 -62 2z"/>
<path d="M1917 2697 c-3 -9 2 -17 14 -20 18 -5 18 -7 -6 -61 -16 -36 -21 -57
-14 -62 15 -9 23 3 44 59 14 38 21 46 36 42 31 -10 22 22 -8 33 -16 5 -35 13
-44 17 -10 4 -19 0 -22 -8z"/>
<path d="M995 2680 c-3 -5 4 -29 16 -52 l22 -43 -45 37 c-65 54 -79 39 -42
-46 16 -36 32 -66 36 -66 18 0 17 23 -3 62 l-22 43 46 -38 c69 -56 82 -42 43
44 -31 68 -39 78 -51 59z"/>
<path d="M2042 2579 c-24 -44 -31 -64 -23 -72 13 -13 10 -16 49 57 35 66 38
76 20 76 -7 0 -28 -28 -46 -61z"/>
<path d="M832 2602 c-9 -6 -3 -24 24 -70 20 -34 43 -62 51 -62 7 0 13 3 13 6
0 6 -70 134 -73 134 -1 0 -8 -4 -15 -8z"/>
<path d="M2164 2569 c-46 -16 -72 -97 -42 -127 22 -22 75 -14 97 14 47 60 9
137 -55 113z m45 -36 c17 -32 -31 -95 -60 -77 -16 9 -10 50 11 72 25 26 36 28
49 5z"/>
<path d="M2170 2498 c-12 -22 -12 -22 6 -6 10 10 15 20 12 24 -4 3 -12 -5 -18
-18z"/>
<path d="M651 2471 c-45 -45 -18 -86 49 -75 34 6 42 4 38 -7 -2 -8 -14 -18
-26 -24 -23 -10 -31 -35 -11 -35 41 0 76 49 58 81 -9 19 -17 21 -55 15 -36 -5
-44 -3 -44 10 0 9 9 18 20 21 12 3 19 10 17 16 -6 20 -26 18 -46 -2z"/>
<path d="M2276 2424 c-36 -41 -45 -59 -37 -67 6 -6 12 -9 14 -6 20 28 57 69
57 64 0 -3 -5 -26 -11 -51 -18 -71 0 -74 59 -12 39 41 48 56 39 66 -9 11 -17
6 -43 -25 l-33 -38 15 50 c14 49 13 75 -4 75 -4 0 -30 -25 -56 -56z"/>
<path d="M1300 2411 c-327 -71 -594 -312 -693 -626 -73 -231 -58 -473 43 -683
50 -106 87 -158 173 -249 175 -184 406 -284 662 -285 189 0 336 39 496 134 87
51 239 197 294 283 118 181 174 420 146 628 -51 381 -317 686 -686 787 -114
32 -319 37 -435 11z m860 -515 c0 -129 -5 -279 -10 -335 -39 -379 -231 -690
-566 -917 -81 -56 -81 -56 -112 -40 -65 34 -233 169 -302 244 -122 132 -214
286 -270 452 -46 135 -52 191 -57 518 l-5 312 661 0 661 0 0 -234z"/>
<path d="M853 1818 c7 -384 23 -468 127 -678 91 -181 251 -361 432 -484 l86
-58 94 63 c191 131 363 332 449 529 83 186 109 360 109 723 l0 207 -651 0
-651 0 5 -302z m1267 44 c0 -131 -5 -276 -10 -322 -24 -189 -87 -362 -190
-516 -67 -100 -230 -263 -338 -338 l-82 -58 -63 43 c-218 148 -384 344 -472
561 -71 173 -84 269 -88 616 l-2 252 623 0 622 0 0 -238z"/>
<path d="M923 1780 c6 -300 14 -362 68 -499 88 -221 229 -401 428 -544 l81
-59 92 70 c250 187 405 426 463 712 11 50 18 163 22 332 l6 258 -583 2 -582 3
5 -275z m867 -295 l0 -475 -40 0 -40 0 0 435 0 435 -215 0 -215 0 2 -435 3
-435 -37 0 -38 0 0 475 0 475 290 0 290 0 0 -475z m-230 -70 l0 -405 -60 0
-60 0 0 405 0 405 60 0 60 0 0 -405z"/>
<path d="M1235 1918 c-10 -26 0 -871 10 -875 7 -2 10 141 10 417 0 407 1 420
20 434 16 13 58 15 227 16 205 0 208 0 222 -22 11 -19 14 -90 12 -413 -3 -421
-1 -452 20 -434 12 9 14 90 14 449 l0 438 -265 1 c-205 1 -267 -2 -270 -11z"/>
<path d="M1470 1413 l0 -383 23 4 c12 3 25 5 30 5 4 1 7 171 7 379 l0 377 -30
0 -30 0 0 -382z"/>
<path d="M520 2342 l-29 -28 58 -52 c44 -38 61 -48 70 -39 9 9 6 16 -11 29
-28 21 -17 35 16 20 19 -8 27 -8 36 3 12 15 11 16 -37 31 -7 2 -13 12 -13 23
0 19 -26 41 -49 41 -6 0 -24 -13 -41 -28z m59 -16 c17 -20 -8 -39 -31 -22 -13
10 -15 15 -6 24 15 15 23 15 37 -2z"/>
<path d="M2407 2296 c-55 -26 -66 -35 -54 -44 8 -7 17 -9 20 -5 12 11 48 -29
38 -41 -6 -7 -6 -18 -2 -25 13 -20 94 103 86 129 -8 25 -6 25 -88 -14z m63 -3
c-1 -5 -10 -19 -21 -32 -16 -20 -22 -22 -29 -11 -6 10 -1 19 18 31 32 21 32
21 32 12z"/>
<path d="M420 2210 c-34 -34 -21 -79 30 -105 39 -20 56 -19 80 5 28 28 25 57
-9 91 -35 34 -72 38 -101 9z m78 -26 c26 -18 27 -57 1 -62 -9 -2 -29 8 -45 21
-48 42 -9 78 44 41z"/>
<path d="M462 2168 c5 -15 28 -23 28 -10 0 5 -7 13 -16 16 -10 4 -14 1 -12 -6z"/>
<path d="M2510 2174 c-30 -21 -57 -38 -58 -40 -8 -6 33 -64 45 -64 15 0 17 16
3 25 -21 13 -8 32 39 60 28 17 47 35 44 42 -7 19 -12 17 -73 -23z"/>
<path d="M325 2050 c-18 -40 -12 -70 8 -38 10 15 16 14 68 -12 48 -25 58 -27
63 -14 4 11 -9 22 -50 40 -46 20 -54 28 -49 44 12 38 -21 21 -40 -20z"/>
<path d="M2636 1974 c-9 -8 -16 -29 -16 -45 0 -37 -27 -40 -32 -2 -4 36 -28
43 -28 8 0 -39 18 -65 43 -65 31 0 47 18 47 51 0 15 5 31 11 35 13 8 31 -16
24 -33 -2 -7 2 -13 10 -13 20 0 19 44 -1 64 -8 9 -22 16 -29 16 -7 0 -21 -7
-29 -16z"/>
<path d="M264 1896 c-4 -11 -1 -22 7 -27 8 -4 37 -24 64 -43 41 -30 51 -33 53
-20 2 9 -1 20 -7 23 -16 10 -1 51 19 51 10 0 20 6 23 14 5 12 -10 15 -74 18
-71 3 -80 1 -85 -16z m96 -16 c-1 -24 -18 -28 -45 -9 l-30 19 38 -2 c20 -1 37
-5 37 -8z"/>
<path d="M2632 1807 c-28 -29 -28 -58 -1 -83 17 -15 22 -16 29 -4 6 9 3 18 -8
26 -13 10 -15 17 -6 31 14 24 79 30 87 9 4 -9 2 -18 -3 -21 -5 -3 -7 -12 -3
-21 8 -21 33 2 33 32 0 55 -86 76 -128 31z"/>
<path d="M225 1771 c-3 -9 -3 -17 2 -18 4 -2 31 -14 58 -27 l50 -24 -62 -1
c-54 -1 -63 -4 -63 -19 0 -17 6 -18 72 -10 63 8 87 18 88 38 0 3 -31 21 -70
41 -58 30 -70 33 -75 20z"/>
<path d="M2690 1661 c-30 -3 -54 -9 -52 -13 1 -5 2 -12 2 -16 0 -5 14 -7 30
-4 17 2 30 0 30 -6 0 -6 3 -17 6 -26 5 -13 -1 -16 -31 -16 -29 0 -36 -4 -33
-17 2 -9 6 -16 11 -16 106 7 145 15 140 29 -4 11 -15 14 -34 12 -26 -4 -29 -2
-29 24 0 25 4 28 31 28 20 0 29 4 27 13 -5 14 -25 16 -98 8z"/>
<path d="M210 1580 c-11 -11 -20 -24 -20 -30 0 -26 41 -50 84 -50 48 0 76 19
76 50 0 47 -102 68 -140 30z m108 -32 c3 -15 -4 -18 -42 -18 -25 0 -48 5 -51
10 -12 20 7 31 48 28 30 -2 43 -8 45 -20z"/>
<path d="M2664 1467 c-22 -19 -26 -29 -20 -51 13 -53 109 -68 141 -23 21 30
19 44 -10 72 -31 32 -75 32 -111 2z m91 -21 c30 -22 12 -46 -35 -46 -44 0 -61
19 -40 45 16 19 50 19 75 1z"/>
<path d="M2708 1423 c6 -2 18 -2 25 0 6 3 1 5 -13 5 -14 0 -19 -2 -12 -5z"/>
<path d="M242 1433 c-68 -5 -66 -28 1 -27 26 0 47 -1 47 -2 0 -1 -20 -14 -45
-28 -48 -29 -59 -56 -22 -56 66 0 127 14 127 28 0 12 -9 13 -45 9 -25 -4 -45
-5 -45 -3 0 2 20 16 45 30 51 31 60 57 18 54 -16 -1 -52 -3 -81 -5z"/>
<path d="M2640 1290 c-36 -36 -20 -82 33 -99 85 -28 143 64 66 104 -39 21 -75
19 -99 -5z m94 -26 c21 -20 20 -31 -3 -43 -40 -22 -103 23 -74 52 12 13 62 7
77 -9z"/>
<path d="M2685 1250 c-3 -5 1 -10 10 -10 9 0 13 5 10 10 -3 6 -8 10 -10 10 -2
0 -7 -4 -10 -10z"/>
<path d="M315 1263 c-77 -18 -95 -25 -95 -40 0 -11 6 -14 23 -9 73 20 74 20
35 -14 -21 -17 -38 -40 -38 -49 0 -17 4 -17 63 -4 84 19 87 20 81 37 -5 13
-12 13 -52 1 l-47 -14 43 37 c59 52 55 71 -13 55z"/>
<path d="M2589 1122 c-5 -15 -11 -32 -14 -39 -2 -6 3 -14 11 -17 8 -3 14 0 14
7 1 34 16 37 72 18 48 -17 57 -17 62 -5 3 8 0 17 -7 19 -6 3 -38 14 -70 24
l-58 20 -10 -27z"/>
<path d="M328 1083 c-49 -18 -65 -29 -61 -40 3 -8 12 -12 22 -7 9 3 42 15 73
26 41 14 55 24 51 34 -6 17 -2 18 -85 -13z"/>
<path d="M497 790 c-37 -27 -54 -45 -51 -55 5 -11 19 -5 65 28 33 23 59 46 60
52 1 21 -20 14 -74 -25z"/>
<path d="M2408 806 l-27 -34 61 -46 62 -45 24 35 c15 23 21 39 15 45 -7 7 -16
0 -27 -16 -14 -21 -20 -24 -31 -15 -12 10 -12 15 1 35 20 31 -2 46 -23 16 -12
-18 -18 -20 -29 -10 -13 10 -12 14 3 31 10 12 13 22 7 28 -6 6 -19 -3 -36 -24z"/>
<path d="M567 729 c-9 -5 -24 -24 -33 -41 -15 -29 -15 -32 4 -57 25 -33 46
-37 76 -14 23 19 23 19 5 42 -10 12 -23 20 -29 16 -8 -5 -8 -11 -1 -19 12 -14
5 -26 -15 -26 -23 0 -25 33 -3 57 29 30 57 30 69 -3 11 -27 30 -24 30 5 0 40
-61 64 -103 40z"/>
<path d="M2322 704 c-40 -28 -25 -92 28 -119 38 -20 46 -19 70 5 24 24 27 60
5 60 -8 0 -15 -9 -15 -20 0 -31 -28 -36 -56 -9 -27 25 -29 64 -4 64 21 0 32
18 17 27 -17 11 -20 10 -45 -8z"/>
<path d="M678 590 c-35 -44 -44 -61 -35 -68 9 -7 19 -1 37 24 14 18 28 34 31
34 3 0 0 -21 -6 -47 -9 -34 -10 -52 -2 -61 9 -11 14 -10 26 6 9 11 31 38 48
60 26 31 30 42 20 50 -9 8 -18 2 -36 -24 -30 -43 -36 -38 -21 16 9 34 9 45 -2
55 -10 10 -22 1 -60 -45z"/>
<path d="M2219 610 c-11 -7 -10 -13 7 -32 39 -43 36 -49 -10 -26 -70 34 -79
14 -26 -56 23 -31 46 -56 51 -56 20 0 16 19 -12 53 -17 20 -29 37 -27 37 2 0
25 -11 53 -24 79 -38 84 -24 22 56 -32 41 -48 54 -58 48z"/>
<path d="M816 479 c-30 -47 -36 -63 -26 -69 9 -6 24 9 52 52 34 53 41 78 20
78 -4 0 -25 -28 -46 -61z"/>
<path d="M2056 496 c-13 -10 -13 -19 1 -84 9 -42 21 -71 27 -69 6 2 10 12 9
21 -1 22 45 45 55 28 5 -7 12 -8 22 -1 12 7 4 20 -42 63 -46 43 -60 51 -72 42z
m58 -77 c-9 -14 -34 -10 -34 5 0 8 -3 23 -7 33 -5 15 -1 13 20 -6 15 -13 24
-28 21 -32z"/>
<path d="M924 489 c-4 -7 0 -16 9 -20 13 -8 11 -16 -13 -61 -16 -29 -26 -56
-24 -60 11 -18 26 -5 51 47 22 44 29 52 41 43 10 -9 16 -8 22 2 5 8 8 15 7 16
-1 1 -21 11 -44 23 -29 14 -44 17 -49 10z"/>
<path d="M1943 443 c-8 -3 -6 -18 9 -51 11 -26 24 -57 29 -69 5 -14 14 -20 23
-17 12 5 10 16 -11 67 -30 71 -34 76 -50 70z"/>
<path d="M1040 376 c-13 -33 -25 -66 -27 -72 -5 -14 69 -36 81 -24 6 6 -1 13
-17 19 -38 15 -36 42 2 39 35 -3 47 15 13 20 -16 2 -22 9 -19 20 3 18 8 19 45
7 40 -12 25 21 -17 37 l-39 16 -22 -62z"/>
<path d="M1810 387 c0 -7 9 -40 20 -74 l21 -60 39 11 c22 5 40 13 40 17 0 15
-20 20 -39 9 -18 -9 -21 -5 -37 50 -10 36 -22 60 -30 60 -8 0 -14 -6 -14 -13z"/>
<path d="M1266 318 c-4 -29 -9 -63 -12 -74 -5 -19 0 -22 33 -26 21 -3 46 -1
56 4 18 9 24 58 6 58 -6 0 -3 7 5 16 32 31 15 58 -45 69 l-36 7 -7 -54z m70
11 c9 -15 -11 -33 -30 -26 -9 4 -13 13 -10 22 7 17 30 20 40 4z m-8 -72 c2
-12 -3 -17 -17 -17 -15 0 -21 6 -21 21 0 25 33 22 38 -4z"/>
<path d="M1680 358 c0 -6 5 -40 11 -76 l11 -64 30 6 c17 3 34 6 39 6 5 0 9 7
9 16 0 12 -6 15 -24 10 -27 -7 -31 0 -41 68 -5 29 -12 46 -21 46 -8 0 -14 -5
-14 -12z"/>
<path d="M1589 353 c-2 -20 3 -91 9 -120 5 -21 11 -30 18 -25 17 11 6 152 -12
152 -8 0 -14 -3 -15 -7z"/>
<path d="M1430 275 c0 -59 3 -75 14 -75 9 0 16 13 19 33 l4 32 13 -32 c9 -20
22 -33 32 -33 17 0 17 2 4 29 -14 26 -14 30 -1 41 18 15 20 51 3 68 -7 7 -29
12 -50 12 l-38 0 0 -75z m59 46 c17 -11 7 -41 -14 -41 -9 0 -15 9 -15 25 0 27
6 30 29 16z"/>
</g>
</svg>
